<svg width="20" height="20" viewBox="0 0 20 20" fill="none" xmlns="http://www.w3.org/2000/svg">
    <path d="M10 13.5C9.07174 13.5 8.1815 13.1313 7.52513 12.4749C6.86875 11.8185 6.5 10.9283 6.5 10C6.5 9.07174 6.86875 8.1815 7.52513 7.52513C8.1815 6.86875 9.07174 6.5 10 6.5C10.9283 6.5 11.8185 6.86875 12.4749 7.52513C13.1313 8.1815 13.5 9.07174 13.5 10C13.5 10.9283 13.1313 11.8185 12.4749 12.4749C11.8185 13.1313 10.9283 13.5 10 13.5ZM18.1948 11.5717C17.7202 11.1983 17.5 10.6039 17.5 10V10V10C17.5 9.3777 17.7313 8.76724 18.2238 8.38681L19.54 7.37C19.73 7.22 19.78 6.95 19.66 6.73L17.66 3.27C17.54 3.05 17.27 2.96 17.05 3.05L15.454 3.69098C14.8989 3.91388 14.2843 3.82165 13.7703 3.51581V3.51581C13.2411 3.20095 12.8174 2.69322 12.7322 2.08337L12.5 0.42C12.46 0.18 12.25 0 12 0H8C7.75 0 7.54 0.18 7.5 0.42L7.26776 2.08337C7.18261 2.69322 6.75892 3.20095 6.22974 3.51581V3.51581C5.71574 3.82165 5.10107 3.91388 4.54604 3.69098L2.95 3.05C2.73 2.96 2.46 3.05 2.34 3.27L0.34 6.73C0.21 6.95 0.27 7.22 0.46 7.37L1.77623 8.38681C2.2687 8.76724 2.5 9.3777 2.5 10V10V10C2.5 10.6039 2.27979 11.1983 1.80516 11.5717L0.46 12.63C0.27 12.78 0.21 13.05 0.34 13.27L2.34 16.73C2.46 16.95 2.73 17.03 2.95 16.95L4.53644 16.3065C5.0961 16.0795 5.71899 16.1775 6.23735 16.4874V16.4874C6.76262 16.8015 7.18228 17.3045 7.26691 17.9106L7.5 19.58C7.54 19.82 7.75 20 8 20H12C12.25 20 12.46 19.82 12.5 19.58L12.7342 17.9026C12.8183 17.3002 13.2326 16.7975 13.7561 16.4876V16.4876C14.2797 16.1776 14.9065 16.0806 15.4704 16.3093L17.05 16.95C17.27 17.03 17.54 16.95 17.66 16.73L19.66 13.27C19.78 13.05 19.73 12.78 19.54 12.63L18.1948 11.5717Z" fill="currentColor"/>
</svg>