<svg width="24" height="24" viewBox="0 0 24 24" fill="none" xmlns="http://www.w3.org/2000/svg">
    <g clip-path="url(#clip0)">
        <path d="M23.2381 23.2381H0.761902V7.18359H5.57831L8.78887 10.3947H23.2381V23.2381Z" fill="currentColor"/>
        <path d="M23.2381 9.6343H19.1847V0.761905C19.1836 0.341704 18.8432 0.00130209 18.4228 0H5.5772C5.15681 0.00130209 4.81641 0.341704 4.81529 0.761905V4.899H6.3391V1.52381H17.6609V11.1581H22.4762V22.4762H1.52381V7.94661H5.26097L8.25112 10.933C8.39546 11.0772 8.59096 11.1581 8.79502 11.1581H16.1371V9.6343H9.10472L6.11868 6.64825C5.97433 6.50391 5.77865 6.42281 5.57459 6.42281H0.761905C0.341146 6.42281 -0.000185936 6.76395 7.59906e-08 7.18471V23.2381C0.00130216 23.6583 0.341704 23.9987 0.761905 24H23.2381C23.6583 23.9987 23.9987 23.6583 24 23.2381V10.3962C24.0002 9.97526 23.6589 9.63411 23.2381 9.6343Z" fill="black"/>
        <path d="M8.02716 3.21094H15.9728V4.73475H8.02716V3.21094Z" fill="black"/>
        <path d="M8.02716 6.42163H15.9728V7.94544H8.02716V6.42163Z" fill="black"/>
    </g>
    <defs>
        <clipPath id="clip0">
            <rect width="24" height="24" fill="white"/>
        </clipPath>
    </defs>
</svg>