<svg width="24" height="22" viewBox="0 0 24 22" fill="none" xmlns="http://www.w3.org/2000/svg">
    <path d="M22.8663 11.1626C22.7141 14.1398 20.4693 17.7473 14.6096 20.5245C8.75018 17.7473 6.50543 14.1398 6.35318 11.1626C6.17468 7.67701 8.84993 5.05014 11.9407 5.60364C12.9257 5.80138 13.8445 6.24545 14.6114 6.89439C15.3785 6.24543 16.2974 5.80137 17.2826 5.60364C20.3692 5.05164 23.0448 7.67701 22.8663 11.1626Z" fill="currentColor"/>
    <path d="M17.149 4.89053C16.2337 5.06451 15.3671 5.4356 14.6095 5.97803C13.8521 5.43554 12.9857 5.06445 12.0704 4.89053C9.01828 4.34528 6.1079 6.50303 5.6579 9.94403C2.2499 7.95053 1.86853 5.77891 1.8749 4.88491C1.8568 4.37403 1.98429 3.86854 2.2425 3.42735C2.5007 2.98616 2.879 2.62745 3.33328 2.39303C4.96978 1.62503 6.34453 3.17378 6.5624 3.29378C6.75515 3.19216 8.26453 1.50016 9.96028 2.48341C10.3117 2.68928 10.6063 2.97938 10.8175 3.32753C11.3885 3.29073 11.9618 3.33569 12.52 3.46103C12.2197 2.50746 11.5765 1.69911 10.7148 1.19228C10.0734 0.830855 9.34236 0.659319 8.60712 0.697698C7.87188 0.736077 7.16271 0.982788 6.5624 1.40903C6.00581 1.01516 5.35573 0.774005 4.67692 0.709591C3.99811 0.645178 3.31427 0.759755 2.69353 1.04191C1.98301 1.39441 1.3876 1.94201 0.976981 2.62059C0.56636 3.29918 0.357521 4.0807 0.374905 4.87366C0.365905 6.10103 0.872905 9.17191 5.64853 11.6435C6.3374 17.81 14.5188 21.2488 14.6095 21.3125C14.6755 21.2653 23.2874 17.5854 23.6152 11.2007C23.8237 7.15366 20.6249 4.26878 17.149 4.89053V4.89053ZM14.6095 19.6565C9.99515 17.3987 7.26515 14.3019 7.10203 11.1242C6.9419 8.00566 9.30778 5.91691 11.8068 6.36166C13.3068 6.62903 14.3193 7.67416 14.6095 7.87253C14.8987 7.67603 15.9112 6.62903 17.4127 6.36166C19.9552 5.90791 22.2749 8.05966 22.1174 11.1242C21.9539 14.3023 19.2235 17.399 14.6095 19.6565Z" fill="black"/>
</svg>