<svg width="24" height="24" viewBox="0 0 24 24" fill="none" xmlns="http://www.w3.org/2000/svg">
    <path d="M6.7369 2.21851C6.54707 3.34544 6.00252 4.38238 5.18252 5.17838C4.38658 5.99819 3.34979 6.5426 2.22302 6.73238C4.34027 11.226 8.77615 14.8324 13.1295 17.1904L17.1949 13.125C14.1469 7.50826 10.2983 3.89626 6.7369 2.21851V2.21851Z" fill="currentColor"/>
    <path d="M8.17498 7.41602C8.07635 7.4159 7.97868 7.43533 7.8876 7.47318C7.79653 7.51102 7.71385 7.56654 7.64435 7.63652C7.57437 7.70617 7.5188 7.78893 7.48081 7.88007C7.44281 7.9712 7.42314 8.06893 7.42291 8.16767C7.42246 8.36708 7.50123 8.5585 7.64192 8.69983C7.7826 8.84116 7.97366 8.92081 8.17307 8.92127C8.37248 8.92172 8.5639 8.84295 8.70523 8.70227C8.81068 8.59713 8.88259 8.46309 8.91188 8.31709C8.94116 8.17109 8.9265 8.01969 8.86975 7.88202C8.81299 7.74436 8.7167 7.62661 8.59303 7.54366C8.46937 7.46071 8.32389 7.41629 8.17498 7.41602V7.41602Z" fill="black"/>
    <path d="M23.3412 10.3831L19.9531 7.7423C19.7576 7.59126 19.5272 7.49208 19.2832 7.45398C19.0392 7.41589 18.7895 7.44012 18.5573 7.52443L16.7491 8.18068C17.0451 8.59243 17.3347 9.01543 17.6179 9.44968L19.0351 8.9288L20.9003 10.3823L20.1061 10.3313C19.7748 10.3269 19.4518 10.434 19.1888 10.6354L17.4237 12.0001C14.5913 7.06655 10.9336 3.36793 7.0553 1.54205C5.3604 0.683451 3.46679 0.293493 1.57055 0.412553C1.27234 0.438158 0.992711 0.568138 0.780893 0.779613C0.569075 0.991088 0.438642 1.2705 0.412553 1.56868C0.318302 2.73013 0.441405 3.89897 0.775553 5.0153C1.17969 4.6985 1.66452 4.5013 2.17505 4.44605C1.94138 3.61516 1.84524 2.75162 1.89043 1.88968C3.25733 1.83729 4.61799 2.09979 5.8673 2.65693C5.63199 3.41146 5.21384 4.09613 4.65005 4.65005C3.96767 5.35591 3.07816 5.82602 2.11055 5.99218C1.99475 6.00928 1.88456 6.05326 1.78879 6.12058C1.69303 6.1879 1.61436 6.27671 1.55907 6.37989C1.50378 6.48307 1.47341 6.59776 1.47039 6.71478C1.46737 6.8318 1.49178 6.94791 1.54168 7.0538C2.92918 9.99493 5.40418 12.8288 8.71543 15.2772L7.52668 18.5513C7.44228 18.7842 7.41835 19.0347 7.45711 19.2794C7.49587 19.5241 7.59606 19.755 7.7483 19.9504L10.3876 23.3318C10.9992 24.1163 12.0342 23.1443 11.9971 22.5537L11.8384 20.0836L13.6936 17.6869L15.1636 16.2177L16.4011 17.4526L17.4619 16.3924L16.2244 15.1572L17.6944 13.6879L20.0914 11.8336L22.5634 11.9918C23.2182 12.0346 24.0799 10.9591 23.3412 10.3831V10.3831ZM10.6317 19.1907C10.4344 19.4524 10.3301 19.7724 10.3351 20.1001L10.3872 20.9067L8.93743 19.0636L9.98743 16.1708C10.6339 16.6039 11.3078 17.0209 12.0034 17.4196L10.6317 19.1907ZM15.1628 14.0967L12.8404 11.7751L11.7799 12.8356L14.1019 15.1568L12.9983 16.2601C9.2108 14.1289 5.41393 11.0382 3.3173 7.2308C4.21962 6.9101 5.03794 6.38994 5.7113 5.70905C6.39243 5.03611 6.91298 4.21818 7.23418 3.31618C10.5987 5.1653 13.7678 8.55643 16.2664 12.9934L15.1628 14.0967Z" fill="black"/>
</svg>