<svg width="24" height="24" viewBox="0 0 24 24" fill="none" xmlns="http://www.w3.org/2000/svg">
    <g clip-path="url(#clip0)">
        <path d="M7.70023 0.978027C3.85599 0.978027 0.739746 4.09427 0.739746 7.93833C0.739746 11.7826 3.85599 14.8988 7.70023 14.8988C11.5443 14.8988 14.6605 11.7826 14.6605 7.93833C14.6605 4.09427 11.5443 0.978027 7.70023 0.978027V0.978027ZM7.70023 11.0531C5.98003 11.0531 4.58548 9.65853 4.58548 7.93833C4.58548 6.21813 5.98003 4.82357 7.70023 4.82357C9.42043 4.82357 10.815 6.21813 10.815 7.93833C10.815 9.65872 9.42043 11.0533 7.70023 11.0531Z" fill="currentColor"/>
        <path d="M23.611 21.1795C23.6112 22.2592 22.9608 23.2326 21.9634 23.6457C20.9658 24.0589 19.8178 23.8304 19.0544 23.0671L14.4976 18.5103C14.2003 18.212 14.2003 17.7294 14.4976 17.4311L15.306 16.6227L12.591 13.9079C9.52339 16.4138 5.05615 16.1883 2.25643 13.3862C-0.543292 10.584 -0.764857 6.11661 1.74367 3.05101C4.25219 -0.0144072 8.6753 -0.680964 11.9759 1.50899C15.2764 3.69895 16.3815 8.03324 14.5319 11.536L13.3879 10.3921C13.7277 9.61808 13.9016 8.78172 13.899 7.93642C13.9059 4.89837 11.7156 2.30067 8.71998 1.79442C5.72457 1.28836 2.80215 3.02196 1.81051 5.89355C0.81868 8.76515 2.04846 11.9328 4.71804 13.3828C7.38761 14.833 10.7143 14.1406 12.5834 11.7457C16.5142 15.6681 13.7219 12.8831 16.3852 15.5437L17.1934 14.7353C17.4917 14.4378 17.9745 14.4378 18.2726 14.7353L18.8103 15.2728L16.1145 17.9726L20.1336 21.9879C20.5798 22.4344 21.3037 22.4344 21.7502 21.9879C22.1967 21.5414 22.1967 20.8175 21.7502 20.371L18.8103 17.4311L19.8895 16.352L22.8294 19.2919C23.3315 19.7916 23.6131 20.4712 23.611 21.1795Z" fill="black"/>
        <path d="M15.2018 0.215576H24V1.74084H15.2018V0.215576Z" fill="black"/>
        <path d="M17.4614 4.83445H24V6.35971H17.4614V4.83445Z" fill="black"/>
        <path d="M16.7554 9.45391H24V10.9792H16.7554V9.45391Z" fill="black"/>
        <path d="M7.70007 4.06116C5.55871 4.06116 3.82287 5.79719 3.82287 7.93855C3.82287 10.0799 5.5589 11.8159 7.70026 11.8159C9.84162 11.8159 11.5776 10.0801 11.5776 7.93873C11.5784 6.91004 11.1701 5.92343 10.4426 5.19617C9.71538 4.46873 8.72877 4.06042 7.70007 4.06116ZM7.70007 10.2907C6.40122 10.2907 5.34813 9.2374 5.34832 7.93836C5.34832 6.63932 6.4014 5.58642 7.70045 5.58642C8.99949 5.58661 10.0526 6.63969 10.0524 7.93873C10.0528 8.56265 9.80494 9.16107 9.36367 9.60215C8.92259 10.0432 8.32399 10.291 7.70007 10.2907Z" fill="black"/>
    </g>
    <defs>
        <clipPath id="clip0">
            <rect width="24" height="24" fill="white"/>
        </clipPath>
    </defs>
</svg>
