<svg width="150" height="150" viewBox="0 0 150 150" fill="none" xmlns="http://www.w3.org/2000/svg">
    <path d="M93.6161 19.9355C92.2966 14.638 87.4695 10.7837 81.9031 10.7837C78.9139 10.7837 76.014 11.9144 73.8076 13.9091C71.6 11.9144 68.7013 10.7837 65.711 10.7837C60.1457 10.7837 55.3175 14.638 53.998 19.9355C48.3286 22.6534 44.7295 28.3194 44.7295 34.6925C44.7295 38.9955 46.4163 43.0947 49.4021 46.1434C49.2052 47.0418 49.1057 47.9619 49.1057 48.8911C49.1057 55.8079 54.6217 61.4601 61.4858 61.6798C62.8042 64.812 65.8872 66.9326 69.4165 66.9326L69.4852 66.9315C71.1411 66.9189 72.654 66.2815 73.8065 65.2458C74.9543 66.2815 76.4626 66.9189 78.1094 66.9315L78.1975 66.9326C81.728 66.9326 84.811 64.812 86.1294 61.6798C92.9935 61.4601 98.5095 55.8079 98.5095 48.8911C98.5095 47.9619 98.4099 47.0418 98.2131 46.1434C101.198 43.0947 102.885 38.9955 102.885 34.6925C102.885 28.3194 99.2854 22.6534 93.6161 19.9355V19.9355ZM69.4509 62.537C69.444 62.537 69.4234 62.5381 69.4165 62.5381C68.057 62.5381 66.837 61.8938 66.0623 60.8753C67.5466 60.2871 68.9221 59.4105 70.1238 58.2752C71.005 57.4421 71.045 56.0516 70.2119 55.1693C69.3776 54.287 67.9872 54.2481 67.1048 55.0812C65.8803 56.2382 64.3937 56.9843 62.8019 57.243C62.4986 57.275 62.1965 57.2922 61.9012 57.2922C57.2687 57.2922 53.5002 53.5237 53.5002 48.89C53.5002 47.9676 53.649 47.0612 53.9419 46.1961C54.9078 43.6933 57.0478 41.7626 59.5438 41.0703C59.9661 42.4459 60.631 43.723 61.5144 44.8193C61.9493 45.3572 62.5844 45.6376 63.2265 45.6376C63.7105 45.6376 64.1981 45.4785 64.6043 45.1512C65.5496 44.389 65.6972 43.0066 64.9362 42.0613C63.9509 40.838 63.4073 39.2198 63.4073 37.5032C63.4073 36.0326 63.7998 34.6445 64.5437 33.4909C65.2006 32.4712 64.9064 31.1117 63.8856 30.4537C62.866 29.7979 61.5053 30.092 60.8484 31.1117C59.7933 32.7505 59.1753 34.6571 59.0414 36.6678C55.9549 37.3304 53.2393 39.1511 51.4048 41.7157C49.9377 39.6913 49.124 37.2411 49.124 34.6925C49.124 29.7258 52.112 25.3462 56.7343 23.5335C57.4747 23.2439 58 22.5768 58.1087 21.7894C58.6305 18.0197 61.899 15.1782 65.711 15.1782C67.8464 15.1782 69.8297 16.0342 71.2956 17.5894C71.4982 17.8035 71.6103 18.0884 71.6103 18.3894V22.1796C68.8066 22.2758 66.1138 23.3618 63.9989 25.2993C63.104 26.1198 63.0445 27.5091 63.8639 28.404C64.2976 28.8778 64.8893 29.117 65.4844 29.117C66.0142 29.117 66.5464 28.927 66.9687 28.5402C68.263 27.3535 69.9006 26.6749 71.6092 26.5799V60.3237C71.6092 61.5345 70.641 62.5278 69.4509 62.537ZM96.2093 41.7157C94.3748 39.1511 91.6591 37.3304 88.5727 36.6678C88.4388 34.6571 87.8208 32.7505 86.7657 31.1117C86.1088 30.092 84.7492 29.7979 83.7284 30.4537C82.7076 31.1117 82.4135 32.4712 83.0704 33.4909C83.8131 34.6445 84.2068 36.0326 84.2068 37.5032C84.2068 39.2198 83.6632 40.838 82.6779 42.0613C81.9157 43.0066 82.0645 44.389 83.0097 45.1512C83.416 45.4785 83.9035 45.6376 84.3876 45.6376C85.0285 45.6376 85.6647 45.3572 86.0996 44.8193C86.9831 43.723 87.648 42.4459 88.0703 41.0703C90.5662 41.7626 92.7063 43.6933 93.671 46.1972C93.9639 47.0624 94.1139 47.9676 94.1139 48.89C94.1139 53.5237 90.3442 57.2922 85.7117 57.2922C85.4176 57.2922 85.1143 57.275 84.811 57.243C83.2203 56.9843 81.7326 56.2382 80.5081 55.0812C79.6257 54.2481 78.2353 54.287 77.4022 55.1693C76.5679 56.0516 76.6079 57.4421 77.4903 58.2764C78.6908 59.4105 80.0663 60.2871 81.5506 60.8753C80.7759 61.8938 79.5559 62.5381 78.1964 62.5381L78.1632 62.537C76.9719 62.5278 76.0037 61.5345 76.0037 60.3237V26.5787C77.7123 26.6737 79.3499 27.3535 80.6454 28.5391C81.0665 28.9259 81.5987 29.117 82.1285 29.117C82.7236 29.117 83.3164 28.8778 83.749 28.404C84.5696 27.5091 84.5089 26.1198 83.614 25.2993C81.4991 23.3618 78.8075 22.2746 76.0037 22.1785V18.3894C76.0037 18.0884 76.1147 17.8046 76.3173 17.5894C77.7833 16.0342 79.7665 15.1782 81.902 15.1782C85.7151 15.1782 88.9824 18.0209 89.5042 21.7894C89.6129 22.5768 90.1382 23.2439 90.8786 23.5346C95.5009 25.3462 98.4889 29.7258 98.4889 34.6925C98.4901 37.2411 97.6764 39.6913 96.2093 41.7157Z" fill="#FF4141"/>
    <path d="M118.654 79.9445C118.455 79.6092 118.165 79.3242 117.824 79.1343L101.553 70.1198C102.808 68.0839 104.167 66.0984 105.632 64.1758C110.968 57.1732 113.787 48.8053 113.787 39.9797C113.787 31.1701 110.976 22.8114 105.654 15.811C104.92 14.844 103.541 14.6563 102.576 15.3899C101.609 16.1246 101.421 17.5036 102.156 18.4695C106.891 24.6996 109.394 32.1382 109.394 39.9797C109.394 47.836 106.884 55.2815 102.137 61.5127C94.6346 71.3592 89.6599 82.7574 87.7178 94.523H59.902C57.976 82.6407 53.0516 71.3123 45.6313 61.7142C40.5547 55.1487 37.9318 46.9422 38.2453 38.6064C38.9331 20.3051 53.7978 5.29399 72.0842 4.43455C80.6855 4.02599 89.1266 6.73022 95.8477 12.0414C96.7998 12.7933 98.1823 12.6308 98.9341 11.6798C99.6871 10.7276 99.5246 9.34518 98.5725 8.5933C91.0194 2.62525 81.5392 -0.40742 71.8782 0.0446185C61.9093 0.513823 52.516 4.71492 45.4265 11.8743C38.3392 19.0325 34.2285 28.4681 33.8543 38.4416C33.5018 47.804 36.4498 57.0244 42.1546 64.4024C43.5714 66.2357 44.8897 68.1366 46.1097 70.0935L29.7905 79.1354C29.4517 79.3231 29.1542 79.6092 28.9596 79.9456L18.8683 97.1449C18.1679 98.3385 17.9825 99.7324 18.3487 101.069C18.7138 102.405 19.5824 103.51 20.7943 104.182L28.6575 108.539V124.01C28.6575 124.808 29.0913 125.544 29.7905 125.932L72.7422 149.728C73.3968 150.089 74.2185 150.091 74.8719 149.728L101.779 134.821C102.84 134.233 103.224 132.896 102.636 131.834C102.048 130.773 100.71 130.389 99.6494 130.977L76.0049 144.077V112.94L82.0759 123.288C83.0281 124.911 84.7115 125.814 86.4556 125.814C87.2956 125.814 88.1481 125.605 88.9412 125.167L114.562 110.973V122.714L108.549 126.046C107.489 126.634 107.104 127.97 107.692 129.032C108.094 129.756 108.844 130.164 109.616 130.164C109.976 130.164 110.343 130.076 110.679 129.89L117.824 125.931C118.523 125.544 118.957 124.807 118.957 124.009V108.537L126.82 104.181C128.032 103.51 128.9 102.405 129.265 101.068C129.632 99.7323 129.446 98.3385 128.746 97.1437L118.654 79.9445ZM73.8065 102.342L67.6279 98.9175H79.9863L73.8065 102.342ZM112.225 81.0569L92.6971 91.8749C94.0521 85.6848 96.302 79.6366 99.3598 73.9295L112.225 81.0569ZM48.3126 73.8975C51.3545 79.5577 53.5918 85.6207 54.9364 91.8863L35.3889 81.0569L48.3126 73.8975ZM33.052 110.973L37.1696 113.253C37.5072 113.441 37.8723 113.529 38.2327 113.529C39.0052 113.529 39.7559 113.121 40.1565 112.396C40.7447 111.335 40.3602 109.998 39.2993 109.409L22.9229 100.337C22.6986 100.212 22.6162 100.015 22.5865 99.9086C22.5567 99.8022 22.5281 99.5904 22.6574 99.3684L31.665 84.0186L70.7715 105.684L61.7479 121.064C61.5534 121.395 61.138 121.509 60.8026 121.323L47.6935 114.06C46.6327 113.473 45.2948 113.857 44.7066 114.917C44.1195 115.979 44.5029 117.316 45.5638 117.904L58.6729 125.167C59.4648 125.606 60.3174 125.814 61.1574 125.814C62.9015 125.814 64.5849 124.911 65.5382 123.289L71.6092 112.941V144.076L33.052 122.714V110.973ZM125.027 99.9086C124.998 100.015 124.915 100.212 124.69 100.337L86.8115 121.323C86.475 121.509 86.0596 121.395 85.8662 121.064L76.8414 105.684L115.949 84.0186L124.956 99.3684C125.086 99.5904 125.056 99.8022 125.027 99.9086Z" fill="currentColor"/>
    <path d="M28.1597 63.6735H28.17C29.3842 63.6678 30.3627 62.679 30.357 61.4659L30.3547 60.9189C30.3478 59.7081 29.3648 58.7319 28.1574 58.7319C28.1528 58.7319 28.1494 58.7319 28.146 58.7319C26.9329 58.7377 25.9533 59.7264 25.959 60.9406L25.9624 61.4877C25.9682 62.6973 26.9501 63.6735 28.1597 63.6735Z" fill="currentColor"/>
    <path d="M25.9806 69.552C25.9863 70.7627 26.9694 71.7389 28.1779 71.7389H28.1882C29.4024 71.7332 30.3809 70.7444 30.3751 69.5302L30.3728 68.9832C30.366 67.7735 29.3841 66.7974 28.1756 66.7974C28.1721 66.7974 28.1676 66.7974 28.1641 66.7974C26.9511 66.8031 25.9714 67.7919 25.9783 69.0049L25.9806 69.552Z" fill="currentColor"/>
    <path d="M31.9258 67.4247H31.9384L32.4843 67.4224C33.6985 67.4155 34.677 66.4267 34.6712 65.2137C34.6644 64.004 33.6825 63.0278 32.474 63.0278C32.4694 63.0278 32.466 63.0278 32.4625 63.0278L31.9155 63.0301C30.7013 63.037 29.7228 64.0258 29.7285 65.2388C29.7354 66.4485 30.7173 67.4247 31.9258 67.4247Z" fill="currentColor"/>
    <path d="M23.86 67.4432H23.8726L24.4196 67.4409C25.6327 67.4341 26.6111 66.4453 26.6054 65.2322C26.5986 64.0226 25.6166 63.0464 24.4082 63.0464C24.4047 63.0464 24.4001 63.0464 24.3967 63.0464L23.8497 63.0487C22.6355 63.0555 21.657 64.0443 21.6639 65.2574C21.6696 66.467 22.6526 67.4432 23.86 67.4432Z" fill="currentColor"/>
    <path d="M122.875 46.6057L122.877 47.1527C122.884 48.3624 123.866 49.3385 125.075 49.3385H125.086C126.299 49.3328 127.279 48.344 127.273 47.131L127.27 46.5839C127.264 45.3743 126.281 44.397 125.072 44.397C125.069 44.397 125.065 44.397 125.062 44.397C123.848 44.4038 122.869 45.3926 122.875 46.6057V46.6057Z" fill="currentColor"/>
    <path d="M125.094 57.4056H125.105C126.319 57.3987 127.297 56.41 127.291 55.1969L127.288 54.6499C127.282 53.4391 126.299 52.4629 125.092 52.4629C125.087 52.4629 125.084 52.4629 125.079 52.4629C123.866 52.4698 122.888 53.4585 122.893 54.6727L122.897 55.2186C122.902 56.4294 123.886 57.4056 125.094 57.4056Z" fill="currentColor"/>
    <path d="M129.39 48.6934C129.387 48.6934 129.383 48.6934 129.379 48.6934L128.832 48.6956C127.618 48.7025 126.64 49.6901 126.645 50.9032C126.651 52.114 127.633 53.0913 128.842 53.0913H128.852L129.399 53.0879C130.613 53.0822 131.592 52.0934 131.586 50.8803C131.582 49.6707 130.598 48.6934 129.39 48.6934V48.6934Z" fill="currentColor"/>
    <path d="M120.776 53.1082H120.788L121.333 53.106C122.548 53.1002 123.526 52.1115 123.522 50.8984C123.515 49.6888 122.533 48.7114 121.324 48.7114C121.321 48.7114 121.317 48.7114 121.314 48.7114L120.767 48.7137C119.553 48.7194 118.574 49.7082 118.579 50.9213C118.585 52.1321 119.568 53.1082 120.776 53.1082V53.1082Z" fill="currentColor"/>
    <path d="M31.919 11.4186H31.9304C33.1435 11.4117 34.122 10.423 34.1162 9.2099L34.1128 8.66287C34.1071 7.45323 33.124 6.47705 31.9167 6.47705C31.9121 6.47705 31.9087 6.47705 31.9041 6.47705C30.691 6.48277 29.7126 7.47154 29.7183 8.68576L29.7217 9.23279C29.7274 10.4424 30.7105 11.4186 31.919 11.4186Z" fill="currentColor"/>
    <path d="M34.1311 16.7288C34.1254 15.5191 33.1424 14.543 31.935 14.543C31.9304 14.543 31.927 14.543 31.9224 14.543C30.7093 14.5487 29.7309 15.5375 29.7366 16.7517L29.74 17.2987C29.7458 18.5083 30.7288 19.4845 31.9373 19.4845H31.9487C33.1618 19.4777 34.1403 18.4889 34.1346 17.2758L34.1311 16.7288Z" fill="currentColor"/>
    <path d="M35.6852 15.1699H35.6978L36.2448 15.1665C37.4579 15.1608 38.4363 14.172 38.4306 12.9578C38.4237 11.7482 37.4418 10.772 36.2333 10.772C36.2299 10.772 36.2253 10.772 36.2219 10.772L35.6749 10.7754C34.4607 10.7811 33.4822 11.7699 33.489 12.9841C33.4948 14.1938 34.4778 15.1699 35.6852 15.1699Z" fill="currentColor"/>
    <path d="M27.6194 15.1885H27.6309L28.1779 15.1862C29.3921 15.1793 30.3706 14.1906 30.3637 12.9764C30.358 11.7667 29.3749 10.7905 28.1676 10.7905C28.163 10.7905 28.1596 10.7905 28.155 10.7905L27.608 10.794C26.3949 10.7997 25.4164 11.7896 25.4221 13.0027C25.429 14.2123 26.4109 15.1885 27.6194 15.1885Z" fill="currentColor"/>
    <path d="M116.736 59.2251C115.523 59.2308 114.545 60.2196 114.551 61.4338L114.554 61.9808C114.56 63.1905 115.543 64.1667 116.751 64.1667H116.763C117.976 64.1598 118.954 63.171 118.949 61.958L118.946 61.4109C118.939 60.1967 117.941 59.2262 116.736 59.2251V59.2251Z" fill="currentColor"/>
    <path d="M116.77 72.2326H116.781C117.995 72.2257 118.974 71.2369 118.967 70.0239L118.965 69.4768C118.958 68.2672 117.976 67.291 116.767 67.291C116.763 67.291 116.759 67.291 116.756 67.291C115.542 67.2967 114.563 68.2855 114.57 69.4997L114.572 70.0468C114.578 71.2564 115.561 72.2326 116.77 72.2326Z" fill="currentColor"/>
    <path d="M120.517 67.918H120.53L121.077 67.9145C122.29 67.9088 123.269 66.9201 123.263 65.7058C123.256 64.4962 122.274 63.52 121.066 63.52C121.062 63.52 121.058 63.52 121.054 63.52L120.507 63.5235C119.293 63.5292 118.314 64.5179 118.321 65.7322C118.327 66.9418 119.31 67.918 120.517 67.918Z" fill="currentColor"/>
    <path d="M112.989 63.5381L112.441 63.5415C111.227 63.5472 110.249 64.5372 110.256 65.7502C110.261 66.9599 111.244 67.936 112.453 67.936H112.464L113.011 67.9326C114.224 67.9269 115.203 66.9381 115.197 65.7239C115.191 64.5108 114.215 63.5358 112.989 63.5381Z" fill="currentColor"/>
    <path d="M116.826 25.2595C117.104 26.222 117.982 26.8468 118.936 26.8468C119.137 26.8468 119.342 26.8194 119.546 26.7599L121.79 26.1121C122.956 25.7757 123.628 24.5569 123.292 23.3919C122.955 22.2257 121.736 21.5528 120.571 21.8904L118.327 22.5381C117.161 22.8746 116.488 24.0934 116.826 25.2595Z" fill="currentColor"/>
    <path d="M116.414 21.7586C116.99 21.7586 117.566 21.5332 117.998 21.0846L119.617 19.4011C120.458 18.5268 120.432 17.1363 119.557 16.2941C118.682 15.4529 117.291 15.4804 116.45 16.3547L114.831 18.0381C113.989 18.9125 114.016 20.3029 114.89 21.1452C115.316 21.5549 115.865 21.7586 116.414 21.7586Z" fill="currentColor"/>
    <path d="M122.311 28.7258L120.042 28.165C118.866 27.8732 117.673 28.593 117.382 29.7706C117.091 30.9493 117.81 32.1395 118.987 32.4314L121.256 32.9921C121.432 33.0356 121.61 33.0574 121.784 33.0574C122.771 33.0574 123.668 32.3879 123.916 31.3865C124.207 30.2089 123.488 29.0176 122.311 28.7258Z" fill="currentColor"/>
    <path d="M24.5308 45.9444C24.5685 45.9444 24.6074 45.9444 24.6464 45.941L26.9798 45.8197C28.1917 45.7556 29.1233 44.7222 29.0592 43.5103C28.9963 42.2983 27.9629 41.3565 26.7498 41.4309L24.4175 41.5533C23.2055 41.6163 22.274 42.6497 22.3381 43.8627C22.3987 45.0358 23.3692 45.9444 24.5308 45.9444Z" fill="currentColor"/>
    <path d="M24.5043 38.8894L26.5849 39.9502C26.9053 40.1128 27.2452 40.1906 27.5805 40.1906C28.3805 40.1906 29.1518 39.7511 29.5409 38.9901C30.0913 37.9086 29.6611 36.5857 28.5807 36.0341L26.499 34.9732C25.4176 34.4227 24.0946 34.8519 23.543 35.9334C22.9926 37.0148 23.4229 38.3389 24.5043 38.8894Z" fill="currentColor"/>
    <path d="M29.3635 50.9956C30.382 50.3353 30.6716 48.9746 30.0101 47.9561C29.3498 46.9387 27.9879 46.6492 26.9705 47.3106L25.0113 48.5821C23.9939 49.2424 23.7044 50.6043 24.3647 51.6216C24.7859 52.2694 25.4908 52.623 26.2095 52.623C26.6192 52.623 27.0346 52.5074 27.4043 52.2682L29.3635 50.9956Z" fill="currentColor"/>
</svg>