<svg width="101" height="52" viewBox="0 0 101 52" fill="none" xmlns="http://www.w3.org/2000/svg">
    <path d="M40.5401 0.924438L61.7626 51.084H52.3659C48.8336 51.084 45.6606 48.9238 44.3657 45.6373L32.7038 16.0381C32.2283 14.8314 31.0624 14.0389 29.7654 14.0409L20.0737 14.056C19.0738 14.0576 18.3828 15.0567 18.7342 15.9928L31.9156 51.1057H23.9826C20.3907 51.1057 17.1773 48.873 15.9241 45.5068L0.773907 4.81017C0.0769515 2.938 1.46088 0.944975 3.45857 0.943925L40.5401 0.924438Z" fill="white"/>
    <path d="M97.2559 0.946088C99.3077 0.946088 100.695 3.0389 99.8959 4.92867L82.6635 45.6809C81.2731 48.969 78.0497 51.1057 74.4797 51.1057H63.7453L42.5349 0.946088H54.9587C58.4524 0.946088 61.5988 3.05994 62.9195 6.2944L72.7023 30.2536L82.7472 6.22802C84.0848 3.02883 87.213 0.946088 90.6806 0.946088H97.2559Z" fill="white"/>
</svg>