<svg width="874" height="106" viewBox="0 0 874 106" fill="none" xmlns="http://www.w3.org/2000/svg">
    <path d="M81.0773 2.34594V87.7459H57.1653V21.4999H24.7133V87.7459H0.923279V2.34594H81.0773Z" fill="white"/>
    <path d="M141.301 89.4539C132.273 89.4539 124.14 87.5426 116.901 83.7199C109.744 79.8973 104.091 74.6106 99.9434 67.8599C95.8768 61.1093 93.8434 53.5046 93.8434 45.0459C93.8434 36.5873 95.8768 28.9826 99.9434 22.2319C104.091 15.4813 109.744 10.1946 116.901 6.37194C124.14 2.54927 132.273 0.637939 141.301 0.637939C150.329 0.637939 158.422 2.54927 165.579 6.37194C172.818 10.1946 178.471 15.4813 182.537 22.2319C186.685 28.9826 188.759 36.5873 188.759 45.0459C188.759 53.5046 186.685 61.1093 182.537 67.8599C178.471 74.6106 172.818 79.8973 165.579 83.7199C158.422 87.5426 150.329 89.4539 141.301 89.4539ZM141.301 69.4459C145.612 69.4459 149.516 68.4293 153.013 66.3959C156.511 64.3626 159.276 61.5159 161.309 57.8559C163.343 54.1146 164.359 49.8446 164.359 45.0459C164.359 40.2473 163.343 36.0179 161.309 32.3579C159.276 28.6166 156.511 25.7293 153.013 23.6959C149.516 21.6626 145.612 20.6459 141.301 20.6459C136.991 20.6459 133.087 21.6626 129.589 23.6959C126.092 25.7293 123.327 28.6166 121.293 32.3579C119.26 36.0179 118.243 40.2473 118.243 45.0459C118.243 49.8446 119.26 54.1146 121.293 57.8559C123.327 61.5159 126.092 64.3626 129.589 66.3959C133.087 68.4293 136.991 69.4459 141.301 69.4459Z" fill="white"/>
    <path d="M243.277 89.4539C234.331 89.4539 226.279 87.5833 219.121 83.8419C212.045 80.0193 206.474 74.7326 202.407 67.9819C198.341 61.2313 196.307 53.5859 196.307 45.0459C196.307 36.5059 198.341 28.8606 202.407 22.1099C206.474 15.3593 212.045 10.1133 219.121 6.37194C226.279 2.54927 234.331 0.637939 243.277 0.637939C251.085 0.637939 258.121 2.02061 264.383 4.78594C270.646 7.55128 275.851 11.5366 279.999 16.7419L264.627 30.6499C259.097 23.9806 252.387 20.6459 244.497 20.6459C239.861 20.6459 235.713 21.6626 232.053 23.6959C228.475 25.7293 225.669 28.6166 223.635 32.3579C221.683 36.0179 220.707 40.2473 220.707 45.0459C220.707 49.8446 221.683 54.1146 223.635 57.8559C225.669 61.5159 228.475 64.3626 232.053 66.3959C235.713 68.4293 239.861 69.4459 244.497 69.4459C252.387 69.4459 259.097 66.1113 264.627 59.4419L279.999 73.3499C275.851 78.5553 270.646 82.5406 264.383 85.3059C258.121 88.0713 251.085 89.4539 243.277 89.4539Z" fill="white"/>
    <path d="M368.552 2.34594V87.7459H344.762V21.4999H320.24L319.752 35.4079C319.345 47.6079 318.329 57.5306 316.702 65.1759C315.157 72.8213 312.473 78.7586 308.65 82.9879C304.828 87.1359 299.419 89.2099 292.424 89.2099C289.171 89.2099 285.511 88.7219 281.444 87.7459L282.786 67.9819C283.844 68.2259 284.941 68.3479 286.08 68.3479C289.252 68.3479 291.692 67.0873 293.4 64.5659C295.108 62.0446 296.328 58.5473 297.06 54.0739C297.792 49.5193 298.28 43.6226 298.524 36.3839L299.744 2.34594H368.552Z" fill="white"/>
    <path d="M428.788 89.4539C419.76 89.4539 411.626 87.5426 404.388 83.7199C397.23 79.8973 391.578 74.6106 387.43 67.8599C383.363 61.1093 381.33 53.5046 381.33 45.0459C381.33 36.5873 383.363 28.9826 387.43 22.2319C391.578 15.4813 397.23 10.1946 404.388 6.37194C411.626 2.54927 419.76 0.637939 428.788 0.637939C437.816 0.637939 445.908 2.54927 453.066 6.37194C460.304 10.1946 465.957 15.4813 470.024 22.2319C474.172 28.9826 476.246 36.5873 476.246 45.0459C476.246 53.5046 474.172 61.1093 470.024 67.8599C465.957 74.6106 460.304 79.8973 453.066 83.7199C445.908 87.5426 437.816 89.4539 428.788 89.4539ZM428.788 69.4459C433.098 69.4459 437.002 68.4293 440.5 66.3959C443.997 64.3626 446.762 61.5159 448.796 57.8559C450.829 54.1146 451.846 49.8446 451.846 45.0459C451.846 40.2473 450.829 36.0179 448.796 32.3579C446.762 28.6166 443.997 25.7293 440.5 23.6959C437.002 21.6626 433.098 20.6459 428.788 20.6459C424.477 20.6459 420.573 21.6626 417.076 23.6959C413.578 25.7293 410.813 28.6166 408.78 32.3579C406.746 36.0179 405.73 40.2473 405.73 45.0459C405.73 49.8446 406.746 54.1146 408.78 57.8559C410.813 61.5159 413.578 64.3626 417.076 66.3959C420.573 68.4293 424.477 69.4459 428.788 69.4459Z" fill="white"/>
    <path d="M572.193 2.34594L535.593 87.7459H511.803L475.325 2.34594H501.433L524.613 57.9779L548.281 2.34594H572.193Z" fill="white"/>
    <path d="M577.802 2.34594H601.592V52.4879L636.85 2.34594H659.542V87.7459H635.752V37.7259L600.616 87.7459H577.802V2.34594Z" fill="white"/>
    <path d="M769.99 68.5919V105.192H747.908V87.7459H677.88V2.34594H701.67V68.5919H734.488V2.34594H758.278V68.5919H769.99Z" fill="white"/>
    <path d="M841.293 71.1539H805.181L798.471 87.7459H773.827L811.525 2.34594H835.315L873.135 87.7459H848.003L841.293 71.1539ZM834.217 53.3419L823.237 26.0139L812.257 53.3419H834.217Z" fill="white"/>
</svg>