<svg width="50" height="46" viewBox="0 0 50 46" fill="none" xmlns="http://www.w3.org/2000/svg">
    <path d="M18.6669 39.9228L24.8818 46L37.0292 34.126H20.456L18.6669 39.9228Z" fill="url(#paint0_linear)"/>
    <path d="M28.6484 8.13415L34.11 24.5894H23.4693L28.6484 8.13415Z" fill="url(#paint1_linear)"/>
    <path d="M37.0292 0L46.1632 24.5894C46.1632 24.5894 52.3782 17.7642 48.9882 9.44309C45.5982 1.12195 37.0292 0 37.0292 0Z" fill="url(#paint2_linear)"/>
    <path d="M19.891 1.30894L9.25031 30.3862C9.25031 30.3862 -3.36648 21.9715 0.869604 9.44309C5.10569 -3.08537 19.891 1.30894 19.891 1.30894Z" fill="url(#paint3_linear)"/>
    <defs>
        <linearGradient id="paint0_linear" x1="25" y1="0" x2="25" y2="46" gradientUnits="userSpaceOnUse">
            <stop stop-color="#F3424A"/>
            <stop offset="1" stop-color="#C92526"/>
        </linearGradient>
        <linearGradient id="paint1_linear" x1="25" y1="0" x2="25" y2="46" gradientUnits="userSpaceOnUse">
            <stop stop-color="#F3424A"/>
            <stop offset="1" stop-color="#C92526"/>
        </linearGradient>
        <linearGradient id="paint2_linear" x1="25" y1="0" x2="25" y2="46" gradientUnits="userSpaceOnUse">
            <stop stop-color="#F3424A"/>
            <stop offset="1" stop-color="#C92526"/>
        </linearGradient>
        <linearGradient id="paint3_linear" x1="25" y1="0" x2="25" y2="46" gradientUnits="userSpaceOnUse">
            <stop stop-color="#F3424A"/>
            <stop offset="1" stop-color="#C92526"/>
        </linearGradient>
    </defs>
</svg>